#!OML:ASF H:\Punching\Project 1\Capture day 1\Session 1\female.ASF
:FULLY-SPECIFIED
:DEGREES
689
root 0.244724 15.6555 6.10113 14.3785 -5.8762 0.775655
lowerback -4.70493 -0.501522 1.5066
upperback -7.03104 -0.699059 0.282386
thorax -4.64936 -0.422924 -0.553769
lowerneck -3.34362 10.5884 18.1196
upperneck 16.5831 15.4849 -14.76
head 8.2616 7.58985 -6.36212
rclavicle -2.5842e-015 -4.77083e-015
rhumerus -43.705 -4.98529 -78.9665
rradius 38.046
rwrist -11.3531
rhand 0.363765 -14.5301
rfingers 7.12502
rthumb 25.9388 -42.7803
lclavicle -2.5842e-015 -4.77083e-015
lhumerus -50.1198 0.81472 83.0554
lradius 48.2745
lwrist 7.65736
lhand -6.85846 24.8057
lfingers 7.12502
lthumb 19.0069 53.897
rfemur -21.8557 7.29268 17.728
rtibia 32.5693
rfoot -23.1035 -16.8569
rtoes 1.54684
lfemur -9.83779 -14.1617 -16.6681
ltibia 17.0899
lfoot -20.4528 27.4711
ltoes 0.662313
690
root 0.247781 15.6523 6.09848 14.2179 -6.18781 0.717813
lowerback -4.58746 -0.43672 1.58681
upperback -6.97971 -0.612456 0.269677
thorax -4.66067 -0.383694 -0.610585
lowerneck -3.24058 10.6468 18.1058
upperneck 16.557 15.599 -14.8393
head 8.26064 7.64274 -6.37588
rclavicle 2.03754e-014 -1.31198e-014
rhumerus -43.2199 -4.42903 -79.2867
rradius 38.9392
rwrist -12.3615
rhand -0.516256 -14.9709
rfingers 7.12502
rthumb 25.0958 -43.3418
lclavicle 2.03754e-014 -1.31198e-014
lhumerus -49.5147 -0.346609 83.6448
lradius 50.4023
lwrist 9.0979
lhand -7.2214 25.2808
lfingers 7.12502
lthumb 18.6579 54.406
rfemur -21.7434 7.2962 17.7624
rtibia 32.575
rfoot -23.1469 -16.6385
rtoes 1.18724
lfemur -9.73668 -13.4277 -16.7408
ltibia 17.3279
lfoot -20.4525 27.0601
ltoes 0.386826
691
root 0.25054 15.6484 6.09663 14.0616 -6.52134 0.654978
lowerback -4.47967 -0.368168 1.67615
upperback -6.92759 -0.521073 0.255096
thorax -4.66548 -0.34252 -0.674727
lowerneck -3.11825 10.706 18.1069
upperneck 16.5214 15.7186 -14.9374
head 8.25711 7.6989 -6.39871
rclavicle -4.92862e-014 -1.39149e-014
rhumerus -42.6907 -3.82016 -79.6546
rradius 39.8849
rwrist -13.4475
rhand -1.43361 -15.3574
rfingers 7.12502
rthumb 24.2165 -43.8483
lclavicle -4.92862e-014 -1.39149e-014
lhumerus -48.9023 -1.53477 84.2322
lradius 52.6664
lwrist 10.6323
lhand -7.49543 25.7171
lfingers 7.12502
lthumb 18.3943 54.8674
rfemur -21.6386 7.2906 17.7996
rtibia 32.5869
rfoot -23.2065 -16.3893
rtoes 0.800784
lfemur -9.65937 -12.6427 -16.8022
ltibia 17.6163
lfoot -20.4849 26.6071
ltoes 0.102547
692
root 0.253093 15.6441 6.09562 13.9098 -6.86839 0.587953
lowerback -4.38165 -0.299551 1.77548
upperback -6.87672 -0.429828 0.238993
thorax -4.666 -0.301911 -0.746292
lowerneck -2.97496 10.7662 18.1232
upperneck 16.4835 15.8441 -15.0498
head 8.25283 7.75895 -6.42914
rclavicle 7.67806e-015 8.15017e-015
rhumerus -42.115 -3.17908 -80.0598
rradius 40.8634
rwrist -14.5732
rhand -2.3716 -15.6497
rfingers 7.12502
rthumb 23.3169 -44.2577
lclavicle 7.67806e-015 8.15017e-015
lhumerus -48.2785 -2.74153 84.8164
lradius 55.0415
lwrist 12.2484
lhand -7.69929 26.1091
lfingers 7.12502
lthumb 18.1982 55.2778
rfemur -21.5387 7.26999 17.8403
rtibia 32.6042
rfoot -23.2788 -16.1124
rtoes 0.382012
lfemur -9.61451 -11.7991 -16.8529
ltibia 17.9706
lfoot -20.546 26.1041
ltoes -0.207847
693
root 0.25535 15.6394 6.09544 13.7664 -7.22031 0.520669
lowerback -4.29611 -0.236852 1.8807
upperback -6.83039 -0.346708 0.221727
thorax -4.66428 -0.265689 -0.822583
lowerneck -2.80865 10.8297 18.1549
upperneck 16.4496 15.9788 -15.1713
head 8.24987 7.82492 -6.46512
rclavicle -6.21202e-017 7.95139e-015
rhumerus -41.4889 -2.52283 -80.4939
rradius 41.8697
rwrist -15.6825
rhand -3.26314 -15.9409
rfingers 7.12502
rthumb 22.4614 -44.6547
lclavicle -6.21202e-017 7.95139e-015
lhumerus -47.6417 -3.95186 85.3933
lradius 57.5135
lwrist 13.9227
lhand -7.84634 26.4426
lfingers 7.12502
lthumb 18.0567 55.6244
rfemur -21.4471 7.23326 17.881
rtibia 32.6275
rfoot -23.363 -15.8123
rtoes -0.0516194
lfemur -9.61664 -10.9056 -16.8943
ltibia 18.4053
lfoot -20.6356 25.5543
ltoes -0.55396
694
root 0.257394 15.634 6.09618 13.6156 -7.57691 0.453775
lowerback -4.20803 -0.181485 1.99052
upperback -6.78462 -0.273281 0.203336
thorax -4.66465 -0.234568 -0.902736
lowerneck -2.62479 10.8989 18.2001
upperneck 16.4281 16.1251 -15.2935
head 8.25152 7.89801 -6.5028
rclavicle 1.30452e-016 1.70955e-014
rhumerus -40.8059 -1.86216 -80.9608
rradius 42.8746
rwrist -16.8089
rhand -4.14716 -16.1798
rfingers 7.12502
rthumb 21.6126 -44.9937
lclavicle 1.30452e-016 1.70955e-014
lhumerus -46.9846 -5.15414 85.96
lradius 60.0719
lwrist 15.6542
lhand -7.97213 26.6836
lfingers 7.12502
lthumb 17.9357 55.8765
rfemur -21.3465 7.1915 17.9221
rtibia 32.6579
rfoot -23.4583 -15.4961
rtoes -0.477498
lfemur -9.65554 -9.96536 -16.9313
ltibia 18.9358
lfoot -20.7499 24.9637
ltoes -0.962653
695
root 0.259161 15.6284 6.09745 13.4688 -7.92403 0.395925
lowerback -4.13235 -0.138764 2.09766
upperback -6.73846 -0.21702 0.181762
thorax -4.65791 -0.2119 -0.984847
lowerneck -2.42416 10.9734 18.2539
upperneck 16.4136 16.2807 -15.4111
head 8.25492 7.97717 -6.53985
rclavicle 2.00648e-015 -6.55989e-015
rhumerus -40.0528 -1.21981 -81.4569
rradius 43.8699
rwrist -17.9243
rhand -4.96987 -16.4023
rfingers 7.12502
rthumb 20.8224 -45.305
lclavicle 2.00648e-015 -6.55989e-015
lhumerus -46.2789 -6.34134 86.5148
lradius 62.6945
lwrist 17.4248
lhand -8.08116 26.8149
lfingers 7.12502
lthumb 17.8307 56.0174
rfemur -21.2501 7.14155 17.955
rtibia 32.696
rfoot -23.5554 -15.1765
rtoes -0.90646
lfemur -9.7607 -8.989 -16.9663
ltibia 19.5794
lfoot -20.8815 24.3277
ltoes -1.44485
696
root 0.260697 15.6227 6.09895 13.3254 -8.25555 0.344902
lowerback -4.05881 -0.111667 2.2025
upperback -6.69605 -0.181565 0.159187
thorax -4.65444 -0.199587 -1.06675
lowerneck -2.20596 11.0537 18.3162
upperneck 16.4141 16.4468 -15.5198
head 8.26246 8.06327 -6.57467
rclavicle -1.51014e-014 9.74045e-015
rhumerus -39.229 -0.595734 -81.9876
rradius 44.8574
rwrist -19.0241
rhand -5.70625 -16.6793
rfingers 7.12502
rthumb 20.1147 -45.658
lclavicle -1.51014e-014 9.74045e-015
lhumerus -45.5307 -7.48683 87.0472
lradius 65.3949
lwrist 19.2091
lhand -8.1351 26.845
lfingers 7.12502
lthumb 17.7788 56.0522
rfemur -21.1565 7.08962 17.9826
rtibia 32.7389
rfoot -23.6502 -14.8602
rtoes -1.31342
lfemur -9.94473 -7.98875 -16.9954
ltibia 20.3572
lfoot -21.0263 23.6488
ltoes -2.02382
